<svg width="96" height="96" viewBox="0 0 96 96" fill="none" xmlns="http://www.w3.org/2000/svg">
  <path d="M27 44C27 32.402 36.402 23 48 23C59.598 23 69 32.402 69 44V57L78 68H18L27 57V44Z" stroke="#2F2A24" stroke-width="7" stroke-linecap="round" stroke-linejoin="round"/>
  <path d="M41 75C42.322 78.534 44.703 81 48 81C51.297 81 53.678 78.534 55 75" stroke="#2F2A24" stroke-width="7" stroke-linecap="round"/>
  <path d="M38 17C40.572 15.071 43.784 14 48 14C52.216 14 55.428 15.071 58 17" stroke="#2F2A24" stroke-width="7" stroke-linecap="round"/>
  <path d="M17 30C20 23.5 25.5 18.5 32 15.5" stroke="#2F2A24" stroke-width="6" stroke-linecap="round"/>
  <path d="M79 30C76 23.5 70.5 18.5 64 15.5" stroke="#2F2A24" stroke-width="6" stroke-linecap="round"/>
</svg>
